<mxfile host="app.diagrams.net" modified="2023-02-21T20:11:29.201Z" agent="5.0 (Windows NT 10.0; Win64; x64) AppleWebKit/537.36 (KHTML, like Gecko) Chrome/110.0.0.0 Safari/537.36" etag="do8ViSrLNPf9DV4nIgve" version="20.8.21" type="github">
  <diagram name="Page-1" id="cDzYuCV7OOy3nY6S_nZg">
    <mxGraphModel dx="1066" dy="511" grid="1" gridSize="10" guides="1" tooltips="1" connect="1" arrows="1" fold="1" page="1" pageScale="1" pageWidth="827" pageHeight="1169" math="0" shadow="0">
      <root>
        <mxCell id="0" />
        <mxCell id="1" parent="0" />
        <mxCell id="mrHFJcEughsvVuARB0Xn-12" value="End-used/Admin &lt;br&gt;Login" style="swimlane;fontStyle=0;align=center;verticalAlign=top;childLayout=stackLayout;horizontal=1;startSize=55;horizontalStack=0;resizeParent=1;resizeParentMax=0;resizeLast=0;collapsible=0;marginBottom=0;html=1;" vertex="1" parent="1">
          <mxGeometry x="100" y="110" width="140" height="180" as="geometry" />
        </mxCell>
        <mxCell id="mrHFJcEughsvVuARB0Xn-13" value="End-user/Admin" style="text;html=1;strokeColor=none;fillColor=none;align=center;verticalAlign=middle;spacingLeft=4;spacingRight=4;overflow=hidden;rotatable=0;points=[[0,0.5],[1,0.5]];portConstraint=eastwest;" vertex="1" parent="mrHFJcEughsvVuARB0Xn-12">
          <mxGeometry y="55" width="140" height="20" as="geometry" />
        </mxCell>
        <mxCell id="mrHFJcEughsvVuARB0Xn-14" value="Enter User ID&lt;span style=&quot;white-space: pre;&quot;&gt;	&lt;/span&gt;" style="text;html=1;strokeColor=none;fillColor=none;align=left;verticalAlign=middle;spacingLeft=4;spacingRight=4;overflow=hidden;rotatable=0;points=[[0,0.5],[1,0.5]];portConstraint=eastwest;" vertex="1" parent="mrHFJcEughsvVuARB0Xn-12">
          <mxGeometry y="75" width="140" height="20" as="geometry" />
        </mxCell>
        <mxCell id="mrHFJcEughsvVuARB0Xn-15" value="Enter Password" style="text;html=1;strokeColor=none;fillColor=none;align=left;verticalAlign=middle;spacingLeft=4;spacingRight=4;overflow=hidden;rotatable=0;points=[[0,0.5],[1,0.5]];portConstraint=eastwest;fontColor=#808080;" vertex="1" parent="mrHFJcEughsvVuARB0Xn-12">
          <mxGeometry y="95" width="140" height="20" as="geometry" />
        </mxCell>
        <mxCell id="mrHFJcEughsvVuARB0Xn-17" value="" style="line;strokeWidth=1;fillColor=none;align=left;verticalAlign=middle;spacingTop=-1;spacingLeft=3;spacingRight=3;rotatable=0;labelPosition=right;points=[];portConstraint=eastwest;" vertex="1" parent="mrHFJcEughsvVuARB0Xn-12">
          <mxGeometry y="115" width="140" height="8" as="geometry" />
        </mxCell>
        <mxCell id="mrHFJcEughsvVuARB0Xn-18" value="If valid creds are given" style="text;html=1;strokeColor=none;fillColor=none;align=center;verticalAlign=middle;spacingLeft=4;spacingRight=4;overflow=hidden;rotatable=0;points=[[0,0.5],[1,0.5]];portConstraint=eastwest;" vertex="1" parent="mrHFJcEughsvVuARB0Xn-12">
          <mxGeometry y="123" width="140" height="20" as="geometry" />
        </mxCell>
        <mxCell id="mrHFJcEughsvVuARB0Xn-19" value="Logs in successfully" style="text;html=1;strokeColor=none;fillColor=none;align=left;verticalAlign=middle;spacingLeft=4;spacingRight=4;overflow=hidden;rotatable=0;points=[[0,0.5],[1,0.5]];portConstraint=eastwest;" vertex="1" parent="mrHFJcEughsvVuARB0Xn-12">
          <mxGeometry y="143" width="140" height="37" as="geometry" />
        </mxCell>
        <mxCell id="mrHFJcEughsvVuARB0Xn-21" value="Phonebook" style="swimlane;fontStyle=0;align=center;verticalAlign=top;childLayout=stackLayout;horizontal=1;startSize=30;horizontalStack=0;resizeParent=1;resizeParentMax=0;resizeLast=0;collapsible=0;marginBottom=0;html=1;" vertex="1" parent="1">
          <mxGeometry x="510" y="50" width="150" height="130" as="geometry" />
        </mxCell>
        <mxCell id="mrHFJcEughsvVuARB0Xn-22" value="-Contact name&lt;br&gt;-Area code&lt;br&gt;-Contact number" style="text;html=1;strokeColor=none;fillColor=none;align=center;verticalAlign=middle;spacingLeft=4;spacingRight=4;overflow=hidden;rotatable=0;points=[[0,0.5],[1,0.5]];portConstraint=eastwest;" vertex="1" parent="mrHFJcEughsvVuARB0Xn-21">
          <mxGeometry y="30" width="150" height="50" as="geometry" />
        </mxCell>
        <mxCell id="mrHFJcEughsvVuARB0Xn-23" value="+getAreaCode()&#xa;+getPhoneNumber()&#xa;+getEmergencyNumber()" style="text;html=1;strokeColor=none;fillColor=none;align=left;verticalAlign=middle;spacingLeft=4;spacingRight=4;overflow=hidden;rotatable=0;points=[[0,0.5],[1,0.5]];portConstraint=eastwest;" vertex="1" parent="mrHFJcEughsvVuARB0Xn-21">
          <mxGeometry y="80" width="150" height="50" as="geometry" />
        </mxCell>
        <mxCell id="mrHFJcEughsvVuARB0Xn-30" value="" style="endArrow=classic;html=1;rounded=0;exitX=0.997;exitY=0.144;exitDx=0;exitDy=0;exitPerimeter=0;entryX=0;entryY=0.25;entryDx=0;entryDy=0;" edge="1" parent="1" source="mrHFJcEughsvVuARB0Xn-12" target="mrHFJcEughsvVuARB0Xn-21">
          <mxGeometry width="50" height="50" relative="1" as="geometry">
            <mxPoint x="390" y="320" as="sourcePoint" />
            <mxPoint x="440" y="270" as="targetPoint" />
          </mxGeometry>
        </mxCell>
        <mxCell id="mrHFJcEughsvVuARB0Xn-31" value="" style="endArrow=classic;html=1;rounded=0;exitX=1;exitY=0.5;exitDx=0;exitDy=0;entryX=0;entryY=0.5;entryDx=0;entryDy=0;" edge="1" parent="1" source="mrHFJcEughsvVuARB0Xn-18" target="mrHFJcEughsvVuARB0Xn-35">
          <mxGeometry width="50" height="50" relative="1" as="geometry">
            <mxPoint x="400" y="320" as="sourcePoint" />
            <mxPoint x="500" y="320" as="targetPoint" />
          </mxGeometry>
        </mxCell>
        <mxCell id="mrHFJcEughsvVuARB0Xn-32" value="End-user" style="text;html=1;align=center;verticalAlign=middle;resizable=0;points=[];autosize=1;strokeColor=none;fillColor=none;" vertex="1" parent="1">
          <mxGeometry x="315" y="95" width="70" height="30" as="geometry" />
        </mxCell>
        <mxCell id="mrHFJcEughsvVuARB0Xn-34" value="Phonebook" style="swimlane;fontStyle=0;align=center;verticalAlign=top;childLayout=stackLayout;horizontal=1;startSize=30;horizontalStack=0;resizeParent=1;resizeParentMax=0;resizeLast=0;collapsible=0;marginBottom=0;html=1;" vertex="1" parent="1">
          <mxGeometry x="510" y="260" width="200" height="160" as="geometry" />
        </mxCell>
        <mxCell id="mrHFJcEughsvVuARB0Xn-33" value="Admin" style="text;html=1;align=center;verticalAlign=middle;resizable=0;points=[];autosize=1;strokeColor=none;fillColor=none;" vertex="1" parent="mrHFJcEughsvVuARB0Xn-34">
          <mxGeometry y="30" width="200" height="30" as="geometry" />
        </mxCell>
        <mxCell id="mrHFJcEughsvVuARB0Xn-35" value="+Contact name&lt;br&gt;+Area code&lt;br&gt;+Contact number" style="text;html=1;strokeColor=none;fillColor=none;align=center;verticalAlign=middle;spacingLeft=4;spacingRight=4;overflow=hidden;rotatable=0;points=[[0,0.5],[1,0.5]];portConstraint=eastwest;" vertex="1" parent="mrHFJcEughsvVuARB0Xn-34">
          <mxGeometry y="60" width="200" height="50" as="geometry" />
        </mxCell>
        <mxCell id="mrHFJcEughsvVuARB0Xn-36" value="+addAreaCode()&lt;br&gt;+addPhoneNumber()&lt;br&gt;+addEmergencyNumber(areacode)" style="text;html=1;strokeColor=none;fillColor=none;align=left;verticalAlign=middle;spacingLeft=4;spacingRight=4;overflow=hidden;rotatable=0;points=[[0,0.5],[1,0.5]];portConstraint=eastwest;" vertex="1" parent="mrHFJcEughsvVuARB0Xn-34">
          <mxGeometry y="110" width="200" height="50" as="geometry" />
        </mxCell>
      </root>
    </mxGraphModel>
  </diagram>
</mxfile>
